<?xml version="1.0" standalone="no"?>
<!DOCTYPE svg PUBLIC "-//W3C//DTD SVG 20010904//EN"
 "http://www.w3.org/TR/2001/REC-SVG-20010904/DTD/svg10.dtd">
<svg version="1.0" xmlns="http://www.w3.org/2000/svg"
 width="500.000000pt" height="500.000000pt" viewBox="0 0 500.000000 500.000000"
 preserveAspectRatio="xMidYMid meet">

<g transform="translate(0.000000,500.000000) scale(0.100000,-0.100000)"
fill="#000000" stroke="none">
<path d="M2305 4151 c-191 -19 -370 -72 -550 -161 -435 -217 -734 -608 -841
-1100 -29 -132 -27 -489 4 -620 37 -157 73 -259 137 -387 221 -435 608 -730
1098 -835 151 -32 447 -32 600 1 223 47 436 138 614 264 175 123 360 333 468
532 189 346 236 772 129 1161 -159 583 -648 1026 -1244 1128 -109 19 -311 27
-415 17z m395 -47 c481 -74 907 -388 1125 -829 120 -242 158 -403 159 -675 1
-212 -14 -317 -71 -490 -77 -233 -196 -423 -378 -605 -98 -98 -255 -225 -278
-225 -3 0 -11 26 -17 57 -29 140 -94 290 -186 429 -55 83 -203 240 -255 271
-16 10 -28 20 -27 24 2 4 28 27 59 52 67 55 141 160 170 242 12 33 24 92 27
132 5 82 -12 322 -34 460 -21 141 -27 129 72 136 186 11 314 127 314 286 0
127 -132 231 -296 231 l-49 0 0 58 c0 148 -135 288 -322 337 -74 19 -232 19
-308 0 -148 -38 -302 -147 -347 -246 -22 -46 -25 -49 -54 -43 -37 7 -136 -12
-177 -33 -49 -25 -108 -85 -134 -137 -38 -73 -38 -180 -1 -251 49 -94 139
-154 231 -155 53 0 55 -4 32 -71 -86 -241 -117 -496 -79 -642 31 -121 112
-245 203 -313 l49 -37 -51 -40 c-198 -155 -354 -397 -417 -647 -12 -47 -23
-86 -25 -88 -6 -7 -125 82 -200 151 -338 304 -514 697 -515 1146 -1 581 329
1116 845 1370 305 151 600 197 935 145z m3 -140 c156 -40 263 -135 297 -262 6
-23 8 -57 5 -75 -6 -29 -12 -34 -64 -49 -93 -28 -226 -136 -206 -168 4 -7 27
8 61 40 30 28 84 65 121 83 61 28 78 32 158 32 133 0 215 -42 256 -130 35 -75
18 -151 -48 -225 -67 -75 -123 -95 -266 -95 -87 0 -117 -3 -117 -12 0 -7 7
-13 15 -13 9 0 20 -10 25 -22 9 -23 40 -232 40 -275 0 -29 -18 -23 -87 30 -57
43 -111 66 -157 67 -44 0 -139 -27 -222 -65 -42 -19 -113 -46 -157 -61 -150
-47 -340 -42 -424 11 l-21 14 19 78 c11 43 34 120 50 171 29 86 34 94 70 112
66 34 46 54 -24 25 -97 -40 -224 -1 -284 88 -76 113 -61 240 38 337 59 57 120
74 233 66 50 -4 105 -8 121 -9 44 -3 43 17 -2 27 -68 15 -65 13 -47 48 55 108
182 196 334 233 76 18 210 18 283 -1z m127 -1139 c19 -13 55 -38 79 -54 24
-17 52 -31 61 -31 15 0 19 -16 25 -124 12 -206 -26 -316 -150 -441 -113 -114
-235 -165 -397 -165 -159 0 -281 51 -394 164 -81 81 -134 179 -155 284 -11 60
-8 259 4 280 4 5 38 -2 79 -16 66 -22 84 -24 193 -19 134 6 202 24 365 97 148
66 220 72 290 25z m-560 -823 c19 -5 48 -13 65 -17 28 -6 27 -7 -29 -30 -70
-29 -110 -64 -142 -127 -32 -63 -34 -144 -4 -153 57 -18 179 31 229 92 17 20
33 34 36 31 4 -3 -1 -28 -11 -55 -14 -38 -19 -88 -21 -238 -4 -200 4 -296 25
-303 10 -3 11 35 6 195 -5 138 -3 219 5 267 12 68 34 126 49 126 4 0 21 -26
38 -58 34 -64 132 -149 159 -139 20 8 21 173 0 243 -16 55 -59 105 -105 124
-34 14 -31 30 6 30 14 0 55 12 91 26 82 33 84 32 213 -96 136 -134 222 -267
284 -440 23 -63 56 -193 56 -219 0 -14 -213 -109 -315 -140 -345 -105 -710
-88 -1038 49 -74 31 -175 80 -195 96 -7 5 28 142 54 216 74 205 216 403 376
523 l60 45 36 -19 c20 -10 53 -23 72 -29z m230 -62 c45 -45 1 -130 -60 -115
-74 18 -61 135 15 135 14 0 34 -9 45 -20z m-145 -30 c-4 -19 0 -42 11 -65 17
-36 17 -36 -12 -66 -40 -42 -96 -69 -144 -69 -37 0 -40 2 -40 28 1 66 62 150
135 183 54 24 58 23 50 -11z m233 4 c41 -28 64 -91 70 -186 3 -63 1 -88 -7
-88 -23 0 -100 83 -117 125 -15 40 -15 45 0 66 9 13 16 40 16 61 0 42 5 45 38
22z"/>
<path d="M3572 2633 c-22 -9 -274 -523 -268 -547 4 -15 33 -35 96 -66 49 -24
90 -45 90 -47 0 -2 -38 -80 -85 -173 l-85 -170 65 -32 c35 -18 66 -30 68 -27
20 21 437 889 435 904 -2 15 -40 39 -143 92 -141 73 -149 76 -173 66z m161
-95 c70 -34 127 -66 127 -70 0 -5 -56 -121 -125 -259 -106 -210 -129 -249
-144 -244 -30 9 -261 124 -261 130 0 19 253 505 263 505 6 0 69 -28 140 -62z
m-175 -595 c15 -9 28 -18 30 -18 4 -3 -149 -315 -154 -315 -14 0 -64 32 -64
40 0 14 149 310 155 310 3 0 18 -8 33 -17z"/>
<path d="M3767 2412 c-46 -70 -87 -161 -76 -167 6 -4 13 -5 15 -2 16 16 111
193 108 199 -10 15 -22 7 -47 -30z"/>
<path d="M3667 2214 c-8 -8 1 -24 14 -24 5 0 9 7 9 15 0 15 -12 20 -23 9z"/>
<path d="M1411 2593 c-22 -4 -23 -8 -18 -48 5 -30 2 -46 -7 -54 -18 -15 -46
11 -46 42 0 35 -12 45 -47 40 -32 -5 -33 -6 -30 -52 2 -40 -1 -46 -18 -46 -15
0 -22 10 -30 39 -9 37 -10 38 -48 33 -21 -3 -41 -7 -43 -10 -8 -8 26 -160 42
-186 28 -43 66 -69 121 -82 l52 -12 12 -71 c6 -39 24 -138 39 -221 16 -82 26
-153 24 -157 -3 -5 -13 -8 -23 -8 -38 0 -46 -25 -32 -108 14 -84 23 -107 44
-115 18 -7 136 18 150 32 7 7 7 35 -2 95 -14 95 -33 123 -76 112 -14 -4 -25
-4 -25 -2 0 2 -18 102 -40 222 -22 120 -40 222 -40 226 0 4 13 14 30 23 41 21
78 63 91 104 9 25 8 56 -1 122 -14 96 -12 94 -79 82z m48 -93 c19 -93 -5 -152
-76 -189 -56 -29 -152 -2 -187 51 -16 26 -42 145 -33 155 11 11 37 -6 37 -25
0 -24 19 -42 45 -42 30 0 45 19 45 57 0 42 26 45 35 3 8 -37 37 -55 64 -41 24
13 30 30 24 64 -4 22 -2 27 15 27 16 0 22 -11 31 -60z m60 -791 c8 -43 10 -74
4 -80 -5 -5 -33 -10 -63 -12 l-53 -2 -13 70 c-8 38 -10 73 -6 76 10 10 41 16
83 18 l36 1 12 -71z"/>
<path d="M1425 2410 c-6 -27 -39 -62 -68 -73 -7 -2 -9 -8 -4 -12 10 -11 57 15
72 40 17 28 27 75 16 75 -5 0 -12 -13 -16 -30z"/>
<path d="M2425 3903 c-58 -21 -125 -69 -125 -89 0 -20 24 -17 44 5 25 27 93
58 148 66 64 10 183 -11 239 -41 52 -29 106 -95 115 -143 7 -35 21 -48 35 -34
19 19 -23 106 -76 160 -62 61 -118 82 -245 89 -66 4 -96 1 -135 -13z"/>
<path d="M2870 3604 c0 -9 5 -14 12 -12 18 6 21 28 4 28 -9 0 -16 -7 -16 -16z"/>
<path d="M1965 3591 c-7 -12 12 -24 25 -16 11 7 4 25 -10 25 -5 0 -11 -4 -15
-9z"/>
<path d="M1848 3554 c-37 -20 -68 -83 -68 -139 0 -98 91 -198 167 -183 27 5
23 34 -5 30 -63 -9 -140 91 -129 169 7 50 30 87 63 100 14 5 24 14 22 21 -6
18 -20 19 -50 2z"/>
<path d="M3085 3490 c-9 -15 1 -27 32 -35 42 -10 84 -45 100 -82 17 -43 4 -93
-32 -120 -17 -12 -22 -22 -16 -31 13 -21 46 4 72 53 28 52 20 101 -23 151 -43
49 -119 86 -133 64z"/>
<path d="M3040 3215 c0 -10 7 -15 18 -13 21 4 19 22 -2 26 -10 2 -16 -3 -16
-13z"/>
<path d="M2581 2624 c-33 -27 -42 -64 -16 -64 8 0 15 4 15 10 0 18 44 50 70
50 26 0 70 -32 70 -50 0 -6 9 -10 20 -10 29 0 25 17 -14 56 -44 44 -99 47
-145 8z"/>
<path d="M2176 2625 c-34 -18 -55 -43 -56 -67 0 -26 13 -22 38 12 18 24 30 30
62 30 32 0 43 -6 64 -32 19 -24 28 -30 37 -21 24 24 -49 93 -98 93 -10 0 -31
-7 -47 -15z"/>
<path d="M2402 2455 c-7 -14 -12 -37 -12 -50 0 -22 -4 -25 -37 -25 -37 0 -56
-10 -132 -65 -19 -14 -45 -25 -57 -25 -43 0 -25 -28 38 -59 79 -40 158 -43
209 -8 l34 23 34 -23 c44 -30 127 -31 191 -2 74 33 103 69 56 69 -12 0 -38 11
-57 25 -76 55 -95 65 -132 65 -21 0 -47 -5 -58 -10 -15 -8 -24 -6 -41 10 -20
18 -21 24 -10 53 15 42 15 47 -1 47 -8 0 -19 -11 -25 -25z m8 -125 c27 -27 25
-36 -9 -71 -24 -24 -38 -29 -76 -29 -25 0 -62 7 -82 15 l-37 16 39 32 c21 18
48 37 59 44 33 19 83 16 106 -7z m180 3 c14 -9 40 -29 58 -45 l33 -28 -28 -11
c-84 -34 -176 -15 -189 38 -14 53 71 84 126 46z"/>
<path d="M2486 1576 c-31 -30 -33 -59 -6 -86 41 -41 110 -14 110 41 0 33 -19
56 -52 64 -21 5 -33 1 -52 -19z m69 -46 c0 -30 -33 -40 -51 -15 -19 25 -6 47
25 43 20 -2 26 -8 26 -28z"/>
<path d="M2482 1417 c-28 -30 -28 -58 1 -85 63 -59 148 27 87 88 -27 27 -62
25 -88 -3z m68 -22 c15 -18 7 -43 -16 -52 -24 -9 -46 24 -33 48 12 23 32 24
49 4z"/>
<path d="M1423 843 c-59 -5 -66 -14 -26 -32 l26 -12 -6 -114 c-4 -74 -3 -117
4 -121 17 -10 23 4 27 71 4 60 6 65 27 65 32 0 43 -18 47 -75 l3 -50 40 -3
c45 -4 65 14 65 60 0 37 -16 36 -23 -1 -6 -31 -34 -48 -51 -31 -6 6 -9 26 -7
46 1 19 -2 41 -8 48 -8 9 -3 18 19 35 33 24 40 64 17 95 -14 20 -66 26 -154
19z m127 -38 c26 -31 -17 -75 -75 -75 -23 0 -25 4 -25 45 l0 45 44 0 c26 0 48
-6 56 -15z"/>
<path d="M2176 795 c6 -33 5 -35 -21 -35 -32 0 -29 -23 3 -28 20 -3 22 -9 22
-73 0 -65 2 -70 26 -81 38 -17 58 0 62 51 4 49 -12 49 -22 0 -11 -54 -31 -29
-34 44 l-3 66 33 3 c43 4 43 22 0 26 -27 3 -32 7 -27 22 4 13 -1 22 -14 29
-30 16 -32 14 -25 -24z"/>
<path d="M3546 795 c6 -33 5 -35 -21 -35 -32 0 -29 -23 3 -28 20 -3 22 -9 22
-71 0 -39 5 -72 12 -79 15 -15 51 -15 66 0 14 14 16 88 2 88 -5 0 -10 -9 -10
-19 0 -30 -11 -51 -26 -51 -11 0 -14 17 -14 69 0 68 1 70 27 73 39 5 42 28 3
28 -27 0 -32 3 -27 20 3 13 -1 24 -13 30 -29 15 -31 13 -24 -25z"/>
<path d="M2594 764 c3 -9 6 -47 6 -85 0 -88 20 -114 81 -106 26 3 39 1 39 -6
0 -7 7 -3 16 8 21 28 16 188 -6 193 -12 2 -15 -11 -15 -74 0 -62 -3 -78 -18
-89 -12 -9 -27 -11 -40 -6 -20 8 -22 16 -23 86 -1 53 -6 80 -15 86 -21 13 -32
11 -25 -7z"/>
<path d="M2837 683 c1 -54 2 -102 3 -106 0 -5 6 -7 13 -5 7 3 14 33 17 84 5
77 6 79 33 82 23 3 27 0 27 -22 0 -31 16 -34 25 -5 11 33 -22 62 -62 56 -18
-3 -35 -1 -38 4 -15 24 -20 1 -18 -88z"/>
<path d="M1721 744 c-31 -39 -29 -117 4 -149 13 -14 36 -25 50 -25 28 0 75 40
75 65 0 22 -9 19 -32 -10 -24 -31 -63 -33 -78 -4 -20 36 -6 49 55 49 54 0 55
0 55 30 0 67 -88 96 -129 44z m93 -20 c11 -29 6 -34 -39 -34 -46 0 -58 13 -33
38 17 17 65 15 72 -4z"/>
<path d="M1945 754 c-19 -20 -16 -64 5 -75 8 -4 29 -14 45 -21 19 -8 30 -21
30 -33 0 -29 -41 -32 -71 -4 -30 28 -42 18 -20 -16 32 -48 109 -42 122 10 8
32 -17 62 -60 73 -36 9 -48 45 -19 56 12 5 24 0 38 -18 27 -34 35 -33 35 7 0
32 -1 33 -45 35 -29 1 -49 -4 -60 -14z"/>
<path d="M2378 759 c-10 -5 -18 -19 -18 -29 0 -24 15 -26 24 -4 9 25 60 14 64
-13 3 -19 -1 -23 -25 -23 -44 0 -73 -26 -73 -64 0 -19 6 -38 13 -44 7 -6 43
-10 81 -10 63 1 69 3 77 26 7 17 6 29 -1 36 -8 8 -12 4 -16 -12 -12 -43 -24
-21 -24 41 0 74 -18 107 -58 107 -15 0 -35 -5 -44 -11z m70 -121 c-3 -29 -7
-33 -34 -36 -50 -5 -58 39 -10 58 39 16 47 12 44 -22z"/>
<path d="M3058 759 c-19 -10 -25 -49 -8 -49 5 0 13 7 18 16 13 24 56 14 60
-13 3 -19 -1 -23 -25 -23 -45 0 -73 -25 -73 -65 0 -44 18 -53 98 -52 65 0 82
11 82 51 0 23 -17 20 -25 -4 -13 -41 -25 -18 -25 49 0 50 -4 74 -16 85 -17 18
-60 20 -86 5z m67 -125 c0 -25 -4 -30 -29 -32 -48 -6 -57 40 -12 58 31 13 41
7 41 -26z"/>
<path d="M3283 737 c5 -16 7 -55 4 -87 -5 -60 3 -87 22 -76 6 4 11 38 11 81 0
65 3 76 21 85 37 20 51 -4 48 -84 -2 -39 0 -77 5 -84 16 -27 26 3 26 82 0 103
-10 115 -91 113 l-57 -1 11 -29z"/>
</g>
</svg>
