<?xml version="1.0" standalone="no"?>
<!DOCTYPE svg PUBLIC "-//W3C//DTD SVG 20010904//EN"
 "http://www.w3.org/TR/2001/REC-SVG-20010904/DTD/svg10.dtd">
<svg version="1.0" xmlns="http://www.w3.org/2000/svg"
 width="500.000000pt" height="500.000000pt" viewBox="0 0 500.000000 500.000000"
 preserveAspectRatio="xMidYMid meet">

<g transform="translate(0.000000,500.000000) scale(0.100000,-0.100000)"
fill="#000000" stroke="none">
<path d="M2237 3695 c-438 -83 -747 -463 -747 -922 l0 -95 -47 -42 c-44 -40
-47 -46 -51 -104 -4 -51 -1 -67 18 -98 22 -35 85 -73 120 -74 9 0 29 -27 47
-63 l30 -62 -23 -35 c-41 -60 -66 -139 -66 -213 0 -89 18 -112 78 -103 l42 5
36 -152 c20 -84 50 -212 67 -285 32 -133 45 -162 78 -162 41 0 50 23 117 311
l68 286 50 -1 c50 -1 51 -1 64 39 24 70 1 181 -57 268 l-25 38 32 65 32 64
400 0 400 0 31 -61 30 -61 -40 -82 c-48 -94 -60 -169 -39 -231 13 -40 14 -40
64 -39 l50 1 68 -286 c67 -288 76 -311 117 -311 33 0 46 29 78 162 17 73 47
201 67 285 l36 152 42 -5 c69 -10 82 15 76 141 -2 48 -31 128 -64 175 l-23 35
30 62 c18 36 38 63 47 63 35 1 98 39 120 74 19 31 22 47 18 98 -4 58 -7 64
-51 104 l-47 42 0 95 c0 369 -194 686 -513 842 -154 75 -218 87 -467 91 -158
2 -236 -1 -293 -11z m447 -95 c191 -22 342 -96 481 -235 135 -136 218 -302
232 -466 l6 -69 -182 0 -181 0 0 55 c0 72 -24 130 -65 155 -58 36 -152 21
-189 -31 l-15 -21 -45 33 c-25 18 -46 33 -46 34 0 2 12 28 26 60 31 68 42 165
24 219 -29 89 -109 136 -230 136 -121 0 -201 -47 -230 -136 -18 -54 -7 -151
24 -219 14 -32 26 -58 26 -60 0 -1 -21 -16 -46 -34 l-45 -33 -15 21 c-37 52
-131 67 -189 31 -41 -25 -65 -83 -65 -155 l0 -55 -181 0 -182 0 6 70 c7 87 52
219 105 307 127 213 356 364 595 392 104 12 278 12 381 1z m-91 -251 c94 -43
13 -299 -95 -299 -75 0 -154 155 -128 251 6 21 12 39 13 39 1 0 20 7 42 15 45
17 124 14 168 -6z m-161 -390 c28 -15 96 -15 140 1 34 13 39 12 77 -13 41 -27
91 -85 91 -105 0 -9 -65 -12 -240 -12 -167 0 -240 3 -240 11 0 32 103 129 137
129 8 0 23 -5 35 -11z m-303 -13 c7 -8 11 -36 9 -63 -3 -46 -4 -48 -35 -51
l-33 -3 0 59 c0 32 3 62 7 65 11 12 40 8 52 -7z m799 -54 l3 -63 -33 3 c-32 3
-33 5 -36 51 -4 54 11 79 42 75 18 -3 21 -11 24 -66z m480 -189 l3 -23 -910 0
c-877 0 -911 1 -911 18 0 10 3 22 7 25 3 4 412 6 907 5 l901 -3 3 -22z m86
-149 c19 -18 20 -38 6 -65 -10 -19 -32 -19 -1000 -19 -968 0 -990 0 -1000 19
-14 27 -13 47 6 65 14 14 118 16 994 16 876 0 980 -2 994 -16z m-1534 -234
l-20 -40 -120 0 -120 0 -20 40 -20 40 160 0 160 0 -20 -40z m1360 0 l-20 -40
-120 0 -120 0 -20 40 -20 40 160 0 160 0 -20 -40z m-1362 -162 c24 -27 61
-105 62 -131 0 -15 -6 -17 -33 -12 -24 5 -39 2 -50 -9 -9 -9 -37 -104 -63
-216 -26 -110 -50 -200 -53 -200 -4 0 -27 91 -54 203 -51 220 -58 233 -116
222 -33 -6 -33 -6 -27 22 9 35 43 102 64 126 13 14 33 17 132 17 108 0 118 -2
138 -22z m1366 -11 c23 -30 56 -106 56 -129 0 -5 -15 -6 -32 -3 -57 11 -64 -3
-115 -222 -27 -112 -50 -203 -54 -203 -3 0 -27 90 -53 200 -26 112 -54 207
-63 216 -11 11 -26 14 -50 9 -40 -7 -43 7 -12 75 39 86 47 90 180 90 l118 0
25 -33z"/>
</g>
</svg>
